<mxfile host="app.diagrams.net" modified="2023-05-26T11:21:47.387Z" agent="Mozilla/5.0 (Windows NT 10.0; Win64; x64) AppleWebKit/537.36 (KHTML, like Gecko) Chrome/112.0.0.0 Safari/537.36" etag="5XsdUX6I2_pxrtajsuN4" version="21.3.4" type="device">
  <diagram name="Page-1" id="g21n9Llr4BP5z_F3T9NM">
    <mxGraphModel dx="1355" dy="833" grid="1" gridSize="10" guides="1" tooltips="1" connect="1" arrows="1" fold="1" page="1" pageScale="1" pageWidth="827" pageHeight="1169" math="0" shadow="0">
      <root>
        <mxCell id="0" />
        <mxCell id="1" parent="0" />
        <mxCell id="AyS7MacKddXB0ImAPilo-5" value="" style="edgeStyle=orthogonalEdgeStyle;rounded=0;orthogonalLoop=1;jettySize=auto;html=1;" edge="1" parent="1" source="AyS7MacKddXB0ImAPilo-1" target="AyS7MacKddXB0ImAPilo-4">
          <mxGeometry relative="1" as="geometry" />
        </mxCell>
        <mxCell id="AyS7MacKddXB0ImAPilo-1" value="Open stopwatch" style="ellipse;whiteSpace=wrap;html=1;" vertex="1" parent="1">
          <mxGeometry x="354" y="40" width="120" height="60" as="geometry" />
        </mxCell>
        <mxCell id="AyS7MacKddXB0ImAPilo-7" value="Timer" style="edgeStyle=orthogonalEdgeStyle;rounded=0;orthogonalLoop=1;jettySize=auto;html=1;" edge="1" parent="1" source="AyS7MacKddXB0ImAPilo-4">
          <mxGeometry relative="1" as="geometry">
            <mxPoint x="534" y="240" as="targetPoint" />
          </mxGeometry>
        </mxCell>
        <mxCell id="AyS7MacKddXB0ImAPilo-9" value="Stopwatch" style="edgeStyle=orthogonalEdgeStyle;rounded=0;orthogonalLoop=1;jettySize=auto;html=1;" edge="1" parent="1" source="AyS7MacKddXB0ImAPilo-4" target="AyS7MacKddXB0ImAPilo-8">
          <mxGeometry relative="1" as="geometry" />
        </mxCell>
        <mxCell id="AyS7MacKddXB0ImAPilo-4" value="Stopwatch or timer?" style="rhombus;whiteSpace=wrap;html=1;" vertex="1" parent="1">
          <mxGeometry x="374" y="140" width="80" height="80" as="geometry" />
        </mxCell>
        <mxCell id="AyS7MacKddXB0ImAPilo-11" value="" style="edgeStyle=orthogonalEdgeStyle;rounded=0;orthogonalLoop=1;jettySize=auto;html=1;" edge="1" parent="1" source="AyS7MacKddXB0ImAPilo-8" target="AyS7MacKddXB0ImAPilo-10">
          <mxGeometry relative="1" as="geometry" />
        </mxCell>
        <mxCell id="AyS7MacKddXB0ImAPilo-13" value="" style="edgeStyle=orthogonalEdgeStyle;rounded=0;orthogonalLoop=1;jettySize=auto;html=1;" edge="1" parent="1" source="AyS7MacKddXB0ImAPilo-8" target="AyS7MacKddXB0ImAPilo-12">
          <mxGeometry relative="1" as="geometry" />
        </mxCell>
        <mxCell id="AyS7MacKddXB0ImAPilo-8" value="Start stopwatch" style="whiteSpace=wrap;html=1;" vertex="1" parent="1">
          <mxGeometry x="240" y="230" width="120" height="60" as="geometry" />
        </mxCell>
        <mxCell id="AyS7MacKddXB0ImAPilo-17" value="" style="edgeStyle=orthogonalEdgeStyle;rounded=0;orthogonalLoop=1;jettySize=auto;html=1;" edge="1" parent="1" source="AyS7MacKddXB0ImAPilo-10" target="AyS7MacKddXB0ImAPilo-16">
          <mxGeometry relative="1" as="geometry" />
        </mxCell>
        <mxCell id="AyS7MacKddXB0ImAPilo-10" value="Lap" style="whiteSpace=wrap;html=1;" vertex="1" parent="1">
          <mxGeometry x="80" y="230" width="120" height="60" as="geometry" />
        </mxCell>
        <mxCell id="AyS7MacKddXB0ImAPilo-15" value="" style="edgeStyle=orthogonalEdgeStyle;rounded=0;orthogonalLoop=1;jettySize=auto;html=1;" edge="1" parent="1" source="AyS7MacKddXB0ImAPilo-12" target="AyS7MacKddXB0ImAPilo-14">
          <mxGeometry relative="1" as="geometry" />
        </mxCell>
        <mxCell id="AyS7MacKddXB0ImAPilo-12" value="Stop" style="whiteSpace=wrap;html=1;" vertex="1" parent="1">
          <mxGeometry x="240" y="380" width="120" height="60" as="geometry" />
        </mxCell>
        <mxCell id="AyS7MacKddXB0ImAPilo-14" value="Reset" style="whiteSpace=wrap;html=1;" vertex="1" parent="1">
          <mxGeometry x="240" y="470" width="120" height="60" as="geometry" />
        </mxCell>
        <mxCell id="AyS7MacKddXB0ImAPilo-16" value="Keep the stopwatch going" style="whiteSpace=wrap;html=1;" vertex="1" parent="1">
          <mxGeometry x="80" y="320" width="120" height="60" as="geometry" />
        </mxCell>
        <mxCell id="AyS7MacKddXB0ImAPilo-18" value="" style="endArrow=classic;html=1;rounded=0;exitX=0.5;exitY=1;exitDx=0;exitDy=0;entryX=0;entryY=0.5;entryDx=0;entryDy=0;" edge="1" parent="1" source="AyS7MacKddXB0ImAPilo-16" target="AyS7MacKddXB0ImAPilo-12">
          <mxGeometry width="50" height="50" relative="1" as="geometry">
            <mxPoint x="390" y="350" as="sourcePoint" />
            <mxPoint x="440" y="300" as="targetPoint" />
            <Array as="points">
              <mxPoint x="140" y="410" />
            </Array>
          </mxGeometry>
        </mxCell>
        <mxCell id="AyS7MacKddXB0ImAPilo-22" value="" style="edgeStyle=orthogonalEdgeStyle;rounded=0;orthogonalLoop=1;jettySize=auto;html=1;" edge="1" parent="1" source="AyS7MacKddXB0ImAPilo-20" target="AyS7MacKddXB0ImAPilo-21">
          <mxGeometry relative="1" as="geometry" />
        </mxCell>
        <mxCell id="AyS7MacKddXB0ImAPilo-20" value="Show all set timers" style="strokeWidth=2;html=1;shape=mxgraph.flowchart.display;whiteSpace=wrap;" vertex="1" parent="1">
          <mxGeometry x="480" y="220" width="100" height="60" as="geometry" />
        </mxCell>
        <mxCell id="AyS7MacKddXB0ImAPilo-24" value="" style="edgeStyle=orthogonalEdgeStyle;rounded=0;orthogonalLoop=1;jettySize=auto;html=1;" edge="1" parent="1" source="AyS7MacKddXB0ImAPilo-21" target="AyS7MacKddXB0ImAPilo-23">
          <mxGeometry relative="1" as="geometry" />
        </mxCell>
        <mxCell id="AyS7MacKddXB0ImAPilo-21" value="Start timer or add new timer?" style="strokeWidth=2;html=1;shape=mxgraph.flowchart.decision;whiteSpace=wrap;" vertex="1" parent="1">
          <mxGeometry x="400" y="320" width="100" height="100" as="geometry" />
        </mxCell>
        <mxCell id="AyS7MacKddXB0ImAPilo-26" value="No" style="edgeStyle=orthogonalEdgeStyle;rounded=0;orthogonalLoop=1;jettySize=auto;html=1;" edge="1" parent="1" source="AyS7MacKddXB0ImAPilo-23" target="AyS7MacKddXB0ImAPilo-25">
          <mxGeometry relative="1" as="geometry" />
        </mxCell>
        <mxCell id="AyS7MacKddXB0ImAPilo-28" value="Yes" style="edgeStyle=orthogonalEdgeStyle;rounded=0;orthogonalLoop=1;jettySize=auto;html=1;" edge="1" parent="1" source="AyS7MacKddXB0ImAPilo-23" target="AyS7MacKddXB0ImAPilo-27">
          <mxGeometry relative="1" as="geometry" />
        </mxCell>
        <mxCell id="AyS7MacKddXB0ImAPilo-23" value="Has limit been reached?" style="strokeWidth=2;html=1;shape=mxgraph.flowchart.decision;whiteSpace=wrap;" vertex="1" parent="1">
          <mxGeometry x="530" y="320" width="100" height="100" as="geometry" />
        </mxCell>
        <mxCell id="AyS7MacKddXB0ImAPilo-25" value="Input length of timer" style="whiteSpace=wrap;html=1;strokeWidth=2;" vertex="1" parent="1">
          <mxGeometry x="520" y="450" width="120" height="60" as="geometry" />
        </mxCell>
        <mxCell id="AyS7MacKddXB0ImAPilo-27" value="Show an error and tell user to delete another timer" style="whiteSpace=wrap;html=1;strokeWidth=2;" vertex="1" parent="1">
          <mxGeometry x="670" y="340" width="120" height="60" as="geometry" />
        </mxCell>
        <mxCell id="AyS7MacKddXB0ImAPilo-29" value="" style="endArrow=classic;html=1;rounded=0;entryX=1;entryY=0.5;entryDx=0;entryDy=0;entryPerimeter=0;exitX=0.5;exitY=0;exitDx=0;exitDy=0;" edge="1" parent="1" source="AyS7MacKddXB0ImAPilo-27" target="AyS7MacKddXB0ImAPilo-20">
          <mxGeometry width="50" height="50" relative="1" as="geometry">
            <mxPoint x="390" y="350" as="sourcePoint" />
            <mxPoint x="440" y="300" as="targetPoint" />
            <Array as="points">
              <mxPoint x="730" y="250" />
            </Array>
          </mxGeometry>
        </mxCell>
        <mxCell id="AyS7MacKddXB0ImAPilo-30" value="" style="endArrow=classic;html=1;rounded=0;exitX=0;exitY=0.5;exitDx=0;exitDy=0;entryX=0.5;entryY=1;entryDx=0;entryDy=0;entryPerimeter=0;" edge="1" parent="1" source="AyS7MacKddXB0ImAPilo-25" target="AyS7MacKddXB0ImAPilo-21">
          <mxGeometry width="50" height="50" relative="1" as="geometry">
            <mxPoint x="390" y="350" as="sourcePoint" />
            <mxPoint x="440" y="300" as="targetPoint" />
            <Array as="points">
              <mxPoint x="450" y="480" />
            </Array>
          </mxGeometry>
        </mxCell>
        <mxCell id="AyS7MacKddXB0ImAPilo-31" value="" style="endArrow=classic;html=1;rounded=0;entryX=1;entryY=0.5;entryDx=0;entryDy=0;exitX=1;exitY=0.5;exitDx=0;exitDy=0;" edge="1" parent="1" source="AyS7MacKddXB0ImAPilo-14" target="AyS7MacKddXB0ImAPilo-8">
          <mxGeometry width="50" height="50" relative="1" as="geometry">
            <mxPoint x="390" y="350" as="sourcePoint" />
            <mxPoint x="440" y="300" as="targetPoint" />
            <Array as="points">
              <mxPoint x="380" y="500" />
              <mxPoint x="380" y="390" />
              <mxPoint x="380" y="260" />
            </Array>
          </mxGeometry>
        </mxCell>
      </root>
    </mxGraphModel>
  </diagram>
</mxfile>
